<svg width="215" height="33" viewBox="0 0 215 33" fill="none" xmlns="http://www.w3.org/2000/svg">
<path d="M111.752 31.6V16.7C111.752 15.2 111.402 13.9833 110.702 13.05C110.002 12.1167 109.068 11.65 107.902 11.65C106.702 11.65 105.702 12.15 104.902 13.15C104.135 14.15 103.752 15.4 103.752 16.9V31.6H97.2516V16.8C97.2516 15.8 97.1849 14.9833 97.0516 14.35C96.9182 13.7167 96.6849 13.2167 96.3516 12.85C96.0516 12.4833 95.6516 12.2333 95.1516 12.1C94.6516 11.9333 94.0516 11.85 93.3516 11.85C90.7182 11.85 89.4016 13.45 89.4016 16.65V31.6H82.9016V7H89.0016V10.6C89.8349 8.96667 90.8349 7.85 92.0016 7.25C93.1682 6.65 94.5682 6.35 96.2016 6.35C97.0349 6.35 97.7682 6.41667 98.4016 6.55C99.0682 6.68333 99.6516 6.91667 100.152 7.25C100.685 7.55 101.185 7.95 101.652 8.45C102.118 8.95 102.585 9.55 103.052 10.25C103.718 8.88334 104.602 7.9 105.702 7.3C106.802 6.66667 108.135 6.35 109.702 6.35C110.935 6.35 112.068 6.56667 113.102 7C114.135 7.4 115.018 7.98334 115.752 8.75C116.485 9.48333 117.052 10.35 117.452 11.35C117.885 12.35 118.102 13.4167 118.102 14.55V31.6H111.752Z" fill="#202A7F"/>
<path d="M135.547 19.55C135.214 19.8833 134.73 20.15 134.097 20.35C133.464 20.55 132.547 20.7667 131.347 21C129.48 21.3667 128.197 21.8333 127.497 22.4C126.797 22.9667 126.447 23.7833 126.447 24.85C126.447 26.6833 127.497 27.6 129.597 27.6C130.43 27.6 131.197 27.4667 131.897 27.2C132.63 26.9 133.247 26.5167 133.747 26.05C134.28 25.55 134.697 24.9833 134.997 24.35C135.33 23.6833 135.497 22.9833 135.497 22.25L135.547 19.55ZM135.997 31.6C135.797 30.9667 135.664 30.2333 135.597 29.4C134.83 30.2667 133.814 30.9667 132.547 31.5C131.28 32 129.814 32.25 128.147 32.25C125.314 32.25 123.23 31.6333 121.897 30.4C120.597 29.1333 119.947 27.5 119.947 25.5C119.947 23.7333 120.23 22.3333 120.797 21.3C121.364 20.2333 122.147 19.4 123.147 18.8C124.147 18.2 125.33 17.7667 126.697 17.5C128.097 17.2 129.614 16.9333 131.247 16.7C132.88 16.4667 133.98 16.1667 134.547 15.8C135.114 15.4 135.397 14.7667 135.397 13.9C135.397 13.1 135.014 12.4833 134.247 12.05C133.514 11.5833 132.514 11.35 131.247 11.35C129.747 11.35 128.664 11.6833 127.997 12.35C127.364 13.0167 126.964 13.9 126.797 15H120.747C120.78 13.7333 120.98 12.5667 121.347 11.5C121.747 10.4333 122.364 9.51667 123.197 8.75C124.064 7.98334 125.18 7.4 126.547 7C127.914 6.56667 129.58 6.35 131.547 6.35C133.48 6.35 135.114 6.56667 136.447 7C137.814 7.43333 138.897 8.06667 139.697 8.9C140.53 9.7 141.13 10.7167 141.497 11.95C141.864 13.15 142.047 14.5167 142.047 16.05V31.6H135.997Z" fill="#202A7F"/>
<path d="M158.863 15.4H164.913V22.4C164.913 23.7 164.713 24.95 164.313 26.15C163.947 27.3167 163.347 28.3667 162.513 29.3C161.713 30.2 160.68 30.9167 159.413 31.45C158.18 31.9833 156.697 32.25 154.963 32.25C153.163 32.25 151.63 31.9833 150.363 31.45C149.097 30.9167 148.047 30.2 147.213 29.3C146.413 28.4 145.83 27.35 145.463 26.15C145.097 24.95 144.913 23.6833 144.913 22.35V0.350002H151.313V7H164.913V11.6H151.313V21.7C151.313 23.2667 151.597 24.4833 152.163 25.35C152.763 26.1833 153.73 26.6 155.063 26.6C156.363 26.6 157.313 26.1833 157.913 25.35C158.547 24.5167 158.863 23.3333 158.863 21.8V15.4Z" fill="#202A7F"/>
<path d="M183.32 31.6V16.35C183.32 14.4833 182.986 13.2167 182.32 12.55C181.686 11.85 180.62 11.5 179.12 11.5C178.32 11.5 177.603 11.6667 176.97 12C176.336 12.3 175.803 12.7333 175.37 13.3C174.936 13.8333 174.603 14.4667 174.37 15.2C174.17 15.9 174.07 16.6667 174.07 17.5V31.6H167.57V0H174.07V10.2C174.303 9.66667 174.653 9.16667 175.12 8.7C175.62 8.2 176.186 7.78334 176.82 7.45C177.453 7.11667 178.153 6.85 178.92 6.65C179.686 6.45 180.486 6.35 181.32 6.35C183.853 6.35 185.903 7.05 187.47 8.45C189.07 9.81667 189.87 11.7333 189.87 14.2V31.6H183.32Z" fill="#202A7F"/>
<path d="M207.516 14.45C207.349 13.25 206.916 12.4167 206.216 11.95C205.516 11.45 204.416 11.2 202.916 11.2C201.683 11.2 200.733 11.3667 200.066 11.7C199.399 12 199.066 12.5167 199.066 13.25C199.066 13.9833 199.399 14.55 200.066 14.95C200.733 15.3167 201.733 15.6833 203.066 16.05C204.466 16.45 205.799 16.8167 207.066 17.15C208.333 17.45 209.449 17.7833 210.416 18.15C211.716 18.6833 212.716 19.4167 213.416 20.35C214.116 21.25 214.466 22.5 214.466 24.1C214.466 26.6667 213.549 28.6667 211.716 30.1C209.916 31.5333 207.249 32.25 203.716 32.25C199.916 32.25 196.999 31.45 194.966 29.85C192.966 28.25 191.933 26.2 191.866 23.7H198.566C198.566 24.8667 199.016 25.7667 199.916 26.4C200.816 27.0333 202.066 27.35 203.666 27.35C204.833 27.35 205.849 27.1667 206.716 26.8C207.583 26.4 208.016 25.7333 208.016 24.8C208.016 23.9333 207.616 23.3167 206.816 22.95C206.049 22.5833 205.133 22.2667 204.066 22C201.999 21.5 200.333 21.05 199.066 20.65C197.799 20.25 196.733 19.7667 195.866 19.2C194.699 18.4667 193.883 17.6333 193.416 16.7C192.983 15.7667 192.766 14.75 192.766 13.65C192.766 12.6167 192.949 11.65 193.316 10.75C193.683 9.85 194.283 9.08333 195.116 8.45C195.949 7.78333 197.016 7.26667 198.316 6.9C199.649 6.53334 201.249 6.35 203.116 6.35C206.683 6.35 209.299 7.03334 210.966 8.4C212.666 9.76667 213.599 11.7833 213.766 14.45H207.516Z" fill="#202A7F"/>
<path d="M0.300003 31.6V0H6.8V31.6H0.300003Z" fill="#0D1134"/>
<path d="M24.4785 19.55C24.1452 19.8833 23.6619 20.15 23.0285 20.35C22.3952 20.55 21.4785 20.7667 20.2785 21C18.4119 21.3667 17.1285 21.8333 16.4285 22.4C15.7285 22.9667 15.3785 23.7833 15.3785 24.85C15.3785 26.6833 16.4285 27.6 18.5285 27.6C19.3619 27.6 20.1285 27.4667 20.8285 27.2C21.5619 26.9 22.1785 26.5167 22.6785 26.05C23.2119 25.55 23.6285 24.9833 23.9285 24.35C24.2619 23.6833 24.4285 22.9833 24.4285 22.25L24.4785 19.55ZM24.9285 31.6C24.7285 30.9667 24.5952 30.2333 24.5285 29.4C23.7619 30.2667 22.7452 30.9667 21.4785 31.5C20.2119 32 18.7452 32.25 17.0785 32.25C14.2452 32.25 12.1619 31.6333 10.8285 30.4C9.52852 29.1333 8.87852 27.5 8.87852 25.5C8.87852 23.7333 9.16185 22.3333 9.72852 21.3C10.2952 20.2333 11.0785 19.4 12.0785 18.8C13.0785 18.2 14.2619 17.7667 15.6285 17.5C17.0285 17.2 18.5452 16.9333 20.1785 16.7C21.8119 16.4667 22.9119 16.1667 23.4785 15.8C24.0452 15.4 24.3285 14.7667 24.3285 13.9C24.3285 13.1 23.9452 12.4833 23.1785 12.05C22.4452 11.5833 21.4452 11.35 20.1785 11.35C18.6785 11.35 17.5952 11.6833 16.9285 12.35C16.2952 13.0167 15.8952 13.9 15.7285 15H9.67852C9.71185 13.7333 9.91185 12.5667 10.2785 11.5C10.6785 10.4333 11.2952 9.51667 12.1285 8.75C12.9952 7.98334 14.1119 7.4 15.4785 7C16.8452 6.56667 18.5119 6.35 20.4785 6.35C22.4119 6.35 24.0452 6.56667 25.3785 7C26.7452 7.43333 27.8285 8.06667 28.6285 8.9C29.4619 9.7 30.0619 10.7167 30.4285 11.95C30.7952 13.15 30.9785 14.5167 30.9785 16.05V31.6H24.9285Z" fill="#0D1134"/>
<path d="M32.9949 31.6V26.6L45.5449 12.15H33.8449V7H53.8449V12.25L41.2949 26.3H54.1949V31.6H32.9949Z" fill="#0D1134"/>
<path d="M67.234 26.8C71.2007 26.8 73.184 24.3 73.184 19.3C73.184 14.3333 71.2007 11.85 67.234 11.85C63.2673 11.85 61.284 14.3333 61.284 19.3C61.284 24.3 63.2673 26.8 67.234 26.8ZM67.234 32.25C65.234 32.25 63.4507 31.9333 61.884 31.3C60.3173 30.6667 58.984 29.7833 57.884 28.65C56.8173 27.5167 56.0007 26.15 55.434 24.55C54.8673 22.95 54.584 21.2 54.584 19.3C54.584 17.3667 54.8673 15.6 55.434 14C56.034 12.4 56.884 11.0333 57.984 9.9C59.084 8.76667 60.4007 7.9 61.934 7.3C63.5007 6.66667 65.2673 6.35 67.234 6.35C69.1673 6.35 70.9007 6.66667 72.434 7.3C73.9673 7.9 75.2673 8.76667 76.334 9.9C77.434 11 78.2673 12.35 78.834 13.95C79.434 15.55 79.734 17.3333 79.734 19.3C79.734 21.2667 79.434 23.05 78.834 24.65C78.2673 26.2167 77.434 27.5667 76.334 28.7C75.2673 29.8333 73.9507 30.7167 72.384 31.35C70.8507 31.95 69.134 32.25 67.234 32.25Z" fill="#0D1134"/>
</svg>
